<svg xmlns="http://www.w3.org/2000/svg" width="80" height="102" fill="none" viewBox="0 0 80 102">
    <style>
        @supports (color:oklch(0% 0 0)){@media (color-gamut:p3){.darkRed{fill:oklch(62.02% .259 27.32)}.lightRed{fill:oklch(69.36% .228 23.76)}.withGradient{fill:url(#gradient-p3)}}}
    </style>
    <path fill="#4A4A4A" fill-rule="evenodd" d="M28 70.991c0-1.1.796-1.593 1.795-1.093l4.41 2.204c.991.496 1.795 1.798 1.795 2.89v24.017c0 1.1-.796 1.593-1.795 1.093l-4.41-2.204C28.804 97.402 28 96.1 28 95.008V70.991zm1.85 23.644c.575 1.58 2.001 2.51 3.186 2.079 1.184-.431 1.678-2.06 1.103-3.64-.574-1.579-2-2.51-3.185-2.078-1.184.43-1.678 2.06-1.103 3.64l-.001-.001z" clip-rule="evenodd"/>
    <path fill="#4A4A4A" fill-rule="evenodd" d="M35.3 72.24l-2 1v28l2-1v-28zm-6.136 18.094l-.228 4.404 2.843 3.58-3.676-.109-1.553-4.144.38-3.622 2.234-.109z" clip-rule="evenodd"/>
    <path fill="#000" fill-rule="evenodd" d="M26 71.991c0-1.1.796-1.593 1.795-1.093l4.41 2.204c.991.496 1.795 1.798 1.795 2.89v24.017c0 1.1-.796 1.593-1.795 1.093l-4.41-2.204C26.804 98.402 26 97.1 26 96.008V71.991zm1.85 23.644c.575 1.58 2.001 2.51 3.186 2.079 1.184-.431 1.678-2.06 1.103-3.64-.574-1.579-2-2.51-3.185-2.078-1.184.43-1.678 2.06-1.103 3.64l-.001-.001z" clip-rule="evenodd"/>
    <path fill="#4A4A4A" fill-rule="evenodd" d="M44 62.991c0-1.1.796-1.593 1.795-1.093l4.41 2.204c.991.496 1.795 1.798 1.795 2.89v24.017c0 1.1-.796 1.593-1.795 1.093l-4.41-2.204C44.804 89.402 44 88.1 44 87.008V62.991zm1.85 23.644c.575 1.58 2.001 2.51 3.186 2.079 1.184-.431 1.678-2.06 1.103-3.64-.574-1.579-2-2.51-3.185-2.078-1.184.43-1.678 2.06-1.103 3.64l-.001-.001z" clip-rule="evenodd"/>
    <path fill="#4A4A4A" fill-rule="evenodd" d="M51.3 64.24l-2 1v28l2-1v-28zm-6.136 18.094l-.228 4.404 2.843 3.58-3.676-.109-1.553-4.144.38-3.622 2.234-.109z" clip-rule="evenodd"/>
    <path fill="#000" fill-rule="evenodd" d="M42 63.991c0-1.1.796-1.593 1.795-1.093l4.41 2.204c.991.496 1.795 1.798 1.795 2.89v24.017c0 1.1-.796 1.593-1.795 1.093l-4.41-2.204C42.804 90.402 42 89.1 42 88.008V63.991zm1.85 23.644c.575 1.58 2.001 2.51 3.186 2.079 1.184-.431 1.678-2.06 1.103-3.64-.574-1.579-2-2.51-3.185-2.078-1.184.43-1.678 2.06-1.103 3.64l-.001-.001z" clip-rule="evenodd"/>
    <path fill="#F22B2B" fill-rule="evenodd" d="M0 20l40 19.998V90L0 70V20z" class="darkRed" clip-rule="evenodd"/>
    <path fill="#FF5E5E" fill-rule="evenodd" d="M80 20L40 39.998V90l40-20V20z" class="lightRed" clip-rule="evenodd"/>
    <path fill="#000" fill-rule="evenodd" d="M66 65v-4l-6 3v4s0 2.5 3 1 3-4 3-4zm6.82-19.974c.755-2.076.105-4.218-1.452-4.785-1.557-.566-3.432.657-4.187 2.733-.756 2.076-.106 4.218 1.45 4.785 1.558.566 3.433-.657 4.188-2.733h.001zm-16 8c.755-2.076.105-4.218-1.452-4.785-1.557-.566-3.432.657-4.187 2.733-.756 2.076-.106 4.218 1.45 4.785 1.558.566 3.433-.657 4.188-2.733h.001zM14 40.502c0-.553-.398-1.201-.888-1.446l-2.224-1.112c-.49-.245-.888.012-.888.558v9.996c0 .553.398 1.201.888 1.446l2.224 1.112c.49.245.888-.012.888-.558v-9.996zm14 7c0-.553-.398-1.201-.888-1.446l-2.224-1.112c-.49-.245-.888.012-.888.558v9.996c0 .553.398 1.201.888 1.446l2.224 1.112c.49.245.888-.012.888-.558v-9.996zM22 65.48s0-2.5-3-4-3 1-3 1v4l6 3v-4z" clip-rule="evenodd"/>
    <path fill="url(#gradient-srgb)" fill-rule="evenodd" d="M0 24L40 4.001 80 24v-4L39.998 0 0 20v4z" class="withGradient" clip-rule="evenodd"/>
    <path fill="#000" fill-rule="evenodd" d="M32 29c-2.21 0-4-1.343-4-3s1.79-3 4-3 4 1.343 4 3-1.79 3-4 3zm16-8c-2.21 0-4-1.343-4-3s1.79-3 4-3 4 1.343 4 3-1.79 3-4 3z" clip-rule="evenodd"/>
    <defs>
        <linearGradient id="gradient-srgb" x1="0" x2="80" y1="21.545" y2="21.545" gradientUnits="userSpaceOnUse">
            <stop stop-color="#F22B2B"/>
            <stop offset="1" stop-color="#FF5E5E"/>
        </linearGradient>
        <linearGradient id="gradient-p3" x1="0" x2="80" y1="21.545" y2="21.545" gradientUnits="userSpaceOnUse">
            <stop stop-color="oklch(62.02% 0.281 27.32)"/>
            <stop offset="1" stop-color="oklch(69.36% 0.228 23.76)"/>
        </linearGradient>
    </defs>
</svg>
