<svg xmlns="http://www.w3.org/2000/svg" width="93" height="95" fill="none" viewBox="0 0 93 95">
    <style>
        @supports (color:oklch(0% 0 0)){@media (color-gamut:p3){.yellow{fill:oklch(78.37% .184 72.99)}}}
    </style>
    <path fill="#000" d="M2.687 49.608c-.116.17-.214.316-.29.434-2.47 3.87-3.088 7.434-1.586 12.08 1.82 5.633 4.742 7.83 11.097 9.846 7 2.221 8.666 2.896 12.293 5.53a28.733 28.733 0 0 1 4.05 3.56l5.15-1.72a35.25 35.25 0 0 0-2.34-2.557 33.736 33.736 0 0 0-3.92-3.328c-4.214-3.06-6.202-3.865-13.72-6.25-4.97-1.578-6.625-2.821-7.853-6.62-.845-2.616-.742-4.466.301-6.555l-3.182-4.42zm6.025-8.748a28.432 28.432 0 0 0 2.11-4.907c1.274-3.924 1.493-6.736 1.323-12.02-.13-4.041-.074-5.585.518-7.673.794-2.804 2.505-5.138 5.405-7.242 3.26-2.367 6.32-3.214 9.65-2.828a18.09 18.09 0 0 1 2.92.605l-3.25 4.389a25.468 25.468 0 0 1-.245-.027c-2.06-.239-3.872.263-6.138 1.907-3.586 2.603-4.07 4.311-3.863 10.708.188 5.816-.07 9.124-1.566 13.726-.93 2.866-2.123 5.338-3.674 7.794l-3.19-4.432zm25.962 48.596c3.076 3.808 6.176 5.483 11.31 5.49 5.601.009 8.78-1.983 12.144-6.57.42-.574 2.254-3.206 2.785-3.93 1.14-1.55 2.202-2.823 3.415-4.035a28.494 28.494 0 0 1 3.415-2.913c1.673-1.215 2.95-2.017 4.526-2.737l.028-5.424c-2.943 1.101-4.784 2.148-7.493 4.116a33.487 33.487 0 0 0-4.01 3.421c-1.412 1.41-2.633 2.872-3.912 4.614-.579.79-2.414 3.423-2.786 3.931-2.499 3.408-4.295 4.533-8.105 4.528-2.763-.004-4.47-.598-6.154-2.216l-5.163 1.725zm47.613-18.16c4.808-1.816 7.238-4.144 8.875-9.17 1.583-4.86.94-8.496-1.66-12.453-.722-1.1-3.655-4.945-4.197-5.718-1.815-2.588-3.106-5.036-4.07-8.002-.604-1.859-.98-3.467-1.2-5.213l-5.176-1.647c.183 2.972.647 5.41 1.62 8.405 1.13 3.479 2.65 6.36 4.732 9.328.64.912 3.508 4.671 4.112 5.591 1.803 2.747 2.171 4.825 1.084 8.161-.877 2.696-1.926 4.133-4.092 5.262l-.028 5.457v-.001zm-2.564-51.149c-.27-5.356-1.61-8.07-5.816-11.128-2.87-2.086-5.64-2.946-8.632-2.782-1.35.074-2.706.346-4.316.822-.61.18-1.233.38-2.07.663.013-.004-1.619.55-2.097.71-4.053 1.344-7.046 1.958-10.805 1.958-1.859 0-3.52-.156-5.21-.482l-3.248 4.384a31.804 31.804 0 0 0 8.458 1.099c4.38 0 7.863-.715 12.38-2.214 5.846-1.941 5.568-1.859 7.182-1.947 1.818-.1 3.46.41 5.418 1.833 2.223 1.616 3.204 2.925 3.59 5.44l5.166 1.644z"/>
    <path fill="#F5A623" d="M89.332 45.338c.116-.169.214-.315.29-.433 2.47-3.87 3.088-7.434 1.586-12.08-1.82-5.633-4.742-7.83-11.097-9.847-7-2.22-8.667-2.895-12.293-5.53a28.734 28.734 0 0 1-4.05-3.56l-5.15 1.72c.747.9 1.51 1.737 2.34 2.558a33.725 33.725 0 0 0 3.92 3.327c4.214 3.06 6.202 3.865 13.72 6.25 4.97 1.578 6.625 2.822 7.853 6.62.845 2.617.742 4.466-.301 6.555l3.182 4.42zm-6.025 8.748a28.448 28.448 0 0 0-2.11 4.908c-1.275 3.923-1.493 6.735-1.323 12.02.13 4.04.074 5.585-.518 7.672-.795 2.805-2.506 5.138-5.406 7.243-3.26 2.366-6.32 3.213-9.65 2.828a18.206 18.206 0 0 1-2.92-.606l3.25-4.388.245.027c2.06.238 3.873-.263 6.138-1.908 3.586-2.602 4.07-4.31 3.863-10.707-.188-5.817.07-9.124 1.567-13.726.93-2.867 2.123-5.338 3.674-7.795l3.19 4.432zM57.343 5.49C54.268 1.682 51.168.007 46.034 0c-5.6-.009-8.78 1.983-12.144 6.57-.42.575-2.253 3.206-2.784 3.93-1.14 1.55-2.203 2.823-3.416 4.036a28.476 28.476 0 0 1-3.414 2.912c-1.673 1.216-2.95 2.017-4.527 2.738l-.028 5.423c2.944-1.1 4.785-2.148 7.494-4.116a33.485 33.485 0 0 0 4.01-3.42c1.412-1.411 2.632-2.873 3.911-4.615.58-.789 2.414-3.422 2.787-3.93 2.499-3.41 4.294-4.535 8.104-4.528 2.764.004 4.47.597 6.154 2.216l5.164-1.726zM9.732 23.65c-4.808 1.817-7.238 4.144-8.875 9.17-1.583 4.86-.94 8.496 1.66 12.453.722 1.1 3.655 4.945 4.197 5.719 1.815 2.587 3.106 5.035 4.07 8.002.603 1.858.98 3.467 1.2 5.213l5.176 1.646c-.183-2.972-.647-5.41-1.62-8.404-1.13-3.48-2.65-6.36-4.732-9.329-.64-.911-3.508-4.671-4.112-5.59-1.803-2.747-2.171-4.825-1.084-8.162.877-2.695 1.926-4.132 4.092-5.262l.028-5.456zm2.564 51.15c.27 5.355 1.61 8.07 5.816 11.128 2.87 2.086 5.64 2.945 8.632 2.781 1.35-.074 2.706-.346 4.316-.821.61-.18 1.233-.382 2.07-.664-.014.005 1.618-.55 2.096-.71 4.054-1.345 7.047-1.958 10.806-1.958 1.859 0 3.52.155 5.21.481l3.248-4.384a31.807 31.807 0 0 0-8.459-1.097c-4.38 0-7.862.714-12.38 2.214-5.846 1.94-5.567 1.858-7.181 1.947-1.818.1-3.46-.41-5.418-1.834-2.223-1.615-3.204-2.925-3.59-5.44l-5.166-1.644v.001z" class="yellow"/>
</svg>
