<svg xmlns="http://www.w3.org/2000/svg" width="100" height="100" fill="none" viewBox="0 0 100 100">
    <path fill="#DD3706" fill-rule="evenodd" d="M99.022 42.707v-.001c-.044-.982-.087-1.964-.189-2.945l-.016-.128c-.228-1.727-.46-3.483-.85-5.176-.3-1.434-.797-2.802-1.298-4.17l-.113-.284c-.596-1.51-1.2-3.042-1.953-4.485-.966-1.836-2.153-3.524-3.342-5.216-.41-.583-.82-1.166-1.221-1.756-.489-.693-1.043-1.325-1.597-1.958-.62-.71-1.242-1.418-1.77-2.212-.566-.867-1.4-1.6-2.232-2.266-1.333-1.07-2.732-2.038-4.13-2.97-1.066-.735-2.132-1.435-3.266-2.069-.657-.367-1.349-.68-2.038-.99-.255-.115-.508-.23-.76-.347-.22-.103-.44-.211-.66-.319-.84-.414-1.687-.83-2.637-1.015a5.681 5.681 0 0 1-.7-.208c-.054-.02-.11-.038-.167-.058a45.013 45.013 0 0 1-.843-.305c-.472-.174-.94-.347-1.423-.495-.386-.121-.769-.25-1.151-.38-.772-.26-1.544-.52-2.347-.72-1.162-.3-2.362-.5-3.562-.668-.894-.132-1.803-.206-2.707-.28a86.143 86.143 0 0 1-1.323-.116c-.866-.101-1.732-.2-2.565-.233a71.547 71.547 0 0 0-2.548-.073c-.43-.008-.857-.015-1.282-.026-.15-.008-.301-.018-.454-.028-.492-.032-.994-.065-1.477-.039a28.42 28.42 0 0 0-2.9.266 41.72 41.72 0 0 0-2.019.285c-.25.04-.498.08-.743.116-.545.066-1.09.116-1.635.166-.553.05-1.107.1-1.662.168a56.17 56.17 0 0 0-2.162.34c-.325.055-.648.11-.968.162a6.258 6.258 0 0 0-.545.132c-.186.05-.371.1-.556.133-.271.057-.547.102-.823.148-.538.088-1.08.177-1.608.354-1.43.435-2.864.936-4.263 1.468-1.3.534-2.566 1.101-3.798 1.768-1.086.6-2.123 1.298-3.153 1.991l-.511.344a57.373 57.373 0 0 0-3.367 2.434c-1.064.835-2.064 1.768-3.03 2.702-.35.35-.656.743-.967 1.142-.163.209-.328.42-.5.625-.214.25-.428.497-.642.744a69.838 69.838 0 0 0-1.822 2.159c-.493.62-.952 1.259-1.416 1.902-.16.222-.32.444-.483.667-1.13 1.532-2.096 3.168-2.995 4.803a55.69 55.69 0 0 0-1.014 1.964l-.019.036a84.24 84.24 0 0 1-.498.976 41.467 41.467 0 0 0-1 2.027c-.334.7-.6 1.468-.8 2.235a293.046 293.046 0 0 0-1.365 4.937c-.4 1.468-.5 3.002-.531 4.503-.034 1.31.093 2.587.224 3.895l.007.075c.01.094.001.192-.008.292-.022.256-.045.517.241.708-.133.367-.033.57.165.633-.127.202-.084.364-.041.524.035.132.07.262.01.413-.024.047.038.128.099.207.024.032.048.063.066.091 0 .033-.003.07-.007.106-.007.078-.015.161.007.229.014.122.045.244.076.37.046.18.092.366.092.564 0 .142.074.297.148.45.046.097.092.193.118.284.033.099 0 .266-.067.333-.2.233-.167.433.133.567.15.385.113.586.08.768l-.012.068c.041.185.018.294.003.366-.01.044-.016.074-.003.1.266.534.367 1.134.399 1.734 0 .112.047.224.101.354l.033.08c.033 0 0 .633 0 .633.116-.07.218-.107.325-.146.046-.017.092-.033.14-.053.102.433.2.835.334 1.202.167.266.167.398.101.43.036.162.066.32.097.477.083.428.164.843.333 1.258 0-.633-.063-1.266-.164-1.867l.221.08h.002c.37.137.686.253.91.253l.034-.108c.022-.074.044-.148.067-.192-.1-.1-.192-.225-.285-.35a3.058 3.058 0 0 0-.282-.349c.048.19.028.295.012.377-.006.033-.012.062-.012.091-.129-.066-.29-.13-.45-.196l-.016-.006.027-.033c.124-.154.252-.313.439-.499 0-.301-.165-.57-.633-.535.086-.029.172-.063.261-.098.117-.047.24-.096.372-.135.227-.123.16-.31.077-.546a1.453 1.453 0 0 1-.11-.487c.02-.34-.092-.679-.206-1.026-.076-.232-.154-.467-.194-.708-.098-.55-.127-1.264-.154-1.949-.02-.475-.038-.937-.079-1.32-.163-.136-.305.128-.369.248a.363.363 0 0 1-.03.052c.1.8.2 1.6.265 2.402-.161-.542-.28-1.129-.408-1.76l-.09-.443c-.013.087-.026.156-.037.215-.018.099-.03.17-.03.254-.142.14-.065.31.023.503a4.4 4.4 0 0 1 .043.097c-.233-.102-.5-.066-.5-.066v.934a2.878 2.878 0 0 1-.451-.604c-.049-.08-.095-.158-.147-.232a7.446 7.446 0 0 1-.087-.416c-.024-.127-.048-.254-.078-.381.044-.116.027-.2.013-.273a.452.452 0 0 1-.013-.094 20.177 20.177 0 0 1-.101-.803c.033-.033-.033-.531-.033-.531.078.009.147.018.21.027h.001c.153.02.272.036.389.036-.29-.376-.151-.628-.021-.863.019-.035.038-.069.055-.103.033-.067.108-.108.182-.149.076-.041.151-.083.185-.152.076-.143.165-.277.254-.41.224-.337.446-.67.446-1.124 0-.18.036-.371.072-.561.024-.127.048-.253.061-.373.067-.568.133-1.135.165-1.702.025-.268.031-.536.038-.803.012-.463.023-.92.13-1.365.268-1.165.601-2.333.967-3.501a37.12 37.12 0 0 1 .899-2.469l.218-.571c.422-1.11.841-2.212 1.382-3.264.692-1.388 1.463-2.736 2.238-4.089.232-.404.463-.809.693-1.215a62.432 62.432 0 0 1 2-3.202l.224-.35c.591-.923 1.192-1.86 1.874-2.72 1.067-1.367 2.233-2.636 3.532-3.77.335-.301.665-.605.996-.909.983-.903 1.962-1.802 3.034-2.626a40.48 40.48 0 0 1 5.926-3.805c1.7-.899 3.465-1.603 5.23-2.27.663-.253 1.359-.426 2.055-.6.496-.124.992-.247 1.477-.4 1.332-.434 2.665-.633 4.064-.667.855-.033 1.682-.125 2.534-.22l.13-.014c.8-.063 1.6-.132 2.466-.232-.1.13-.133.198-.165.263l-.002.003c-.192.28-.393.561-.594.842a45.94 45.94 0 0 0-.538.76c-.157.227-.323.463-.489.699l-.444.634c-.143.19-.29.378-.436.567-.398.515-.799 1.033-1.164 1.57-.319.459-.626.924-.935 1.389a53.533 53.533 0 0 1-1.33 1.947 55.346 55.346 0 0 1-1.673 2.094c-.276.335-.552.669-.825 1.007-.546.714-1.077 1.436-1.607 2.157a129.52 129.52 0 0 1-1.623 2.18c-.436.595-.884 1.18-1.33 1.761a70.814 70.814 0 0 0-1.7 2.277 54.122 54.122 0 0 0-1.525 2.268c-.31.478-.621.958-.941 1.432-.616.917-1.232 1.826-1.848 2.734v.001h-.001c-.616.91-1.232 1.818-1.848 2.735-.967 1.4-1.933 2.769-2.931 4.17a.46.46 0 0 1-.18.146c-.028.017-.057.033-.086.053-.172.28-.233.477-.282.635-.026.086-.05.161-.085.232-.266.5-.532 1-.833 1.468-.1.16-.225.309-.352.46-.084.1-.169.2-.248.306-.014-.166.075-.297.165-.43.127-.188.256-.378.1-.671-.085.14-.171.27-.258.4-.08.12-.16.24-.24.368l-.4.798c.025.019.053.036.081.054.123.077.242.151.052.313a8.58 8.58 0 0 0-.156.277 7.81 7.81 0 0 1-.144.258c.167-.101.266-.2.367-.334 0 .322-.154.591-.304.855l-.063.11c-.1.2-.31.363-.508.516a4.075 4.075 0 0 0-.19.152c.016.018.086.052.154.087a.966.966 0 0 1 .145.08c.138-.046.233-.106.3-.148.078-.049.116-.072.134-.02l.08-.1a.831.831 0 0 0 .153-.232c.132-.334.332-.6.665-.734.13-.065.226-.16.322-.255l.01-.011.677-.694h.001c.78-.796 1.558-1.589 2.254-2.443.93-1.13 1.8-2.287 2.67-3.445.44-.587.882-1.174 1.33-1.757.407-.53.867-1.058 1.317-1.575.174-.2.347-.4.514-.595.083.646.05 1.267.017 1.867l-.017.336c-.054.66-.099 1.32-.143 1.987-.038.578-.077 1.159-.123 1.747-.017.25-.017.5-.017.75s0 .5-.017.751a.456.456 0 0 1-.05.183.449.449 0 0 0-.052.184c0 .167.026.341.051.516.025.176.05.351.05.518-.049.607-.107 1.205-.164 1.803-.06.62-.12 1.238-.17 1.866-.026.199.042.4.106.587.02.062.041.123.058.181-.073.794-.042 1.609-.01 2.434.04 1.045.08 2.108-.089 3.17.233-.367.3-.6.3-.833.02-.131.014-.262.008-.403a4.533 4.533 0 0 1-.008-.23v-.334c.01-.2.033-.405.055-.61.043-.41.088-.825.044-1.226-.067-.667-.067-1.3.067-1.934.026-.102.027-.215.028-.334.002-.19.003-.395.106-.6v.5c-.007.439-.01.877-.012 1.316-.008 1.462-.015 2.925-.22 4.387-.008.042-.006.092-.004.144.007.153.013.315-.261.29-.15.296-.135.553-.122.776.013.228.024.423-.144.59-.045.045-.003.19.04.342.023.078.046.158.057.226-.134.401-.134.401.066.434.017.372.043.727.068 1.078.025.34.05.678.065 1.023.327-.777.352-1.57.378-2.366.016-.5.033-1.003.123-1.504l.002.028c.032.525.065 1.05.031 1.604 0 .838-.03 1.642-.062 2.475l-.004.095c0 .161-.031.322-.063.483l-.004.018a9.745 9.745 0 0 0-.084.461c-.052.31-.104.616-.216.906-.1.252-.086.6-.074.926.004.106.008.21.008.309v1.27c.073.307.056.535.042.734-.011.167-.022.313.024.465l-.007.023c-.095.317-.125.415-.094.513l.101.5c.425-.043.458.145.494.356.02.12.043.247.14.344-.16.215-.15.32-.139.424a.666.666 0 0 1 .005.078c0 .29-.03.55-.062.837l-.004.03c0 .388-.008.776-.016 1.16-.008.375-.016.746-.016 1.109 0 .05.008.1.016.15.008.05.016.099.016.148 0 .069-.032.937-.032.937.067.099 0 .199-.102.299-.031 0-.131-4.237-.131-4.237h-.5c-.02.608-.019 1.198-.017 1.777.003 1.325.006 2.593-.25 3.894a4.67 4.67 0 0 0-.39.049c-.165.026-.316.05-.576.05-1.033 0-2.066 0-3.099.033-.616 0-1.223.008-1.83.016h-.001c-.608.008-1.216.017-1.834.017-.298 0-.605.017-.913.034a16.72 16.72 0 0 1-.917.034c-.4 0-.809-.025-1.217-.05a19.229 19.229 0 0 0-1.213-.051c-.735 0-1.457.036-2.181.072-.493.024-.986.049-1.485.062-.441.016-.882.024-1.323.032-.458.009-.915.018-1.373.035-.602.032-1.203.063-1.8.132-.188.023-.36.08-.56.146-.085.027-.175.057-.273.086a1.76 1.76 0 0 1-.11-.005 1.936 1.936 0 0 0-.422.005 2.589 2.589 0 0 0-.486.168c-.158.066-.315.133-.482.167-.5.1-.633.233-.567.734v.333c-.03.06.614-.076.72-.098-.033.014-.059.077-.09.156a1.425 1.425 0 0 1-.099.208c.245-.093.404-.155.556-.216l.046-.017c.304.142.583.149.846.155a2.2 2.2 0 0 1 .485.047c1.299.332 2.63.469 3.962.599.867.067 1.7.101 2.566.133 1.232.067 2.465.134 3.696.134.517 0 1.026-.025 1.534-.05a29.76 29.76 0 0 1 1.53-.051c.979 0 1.96.03 2.941.061h.002c.451.015.903.029 1.354.04.146 0 .3-.008.458-.017a8.47 8.47 0 0 1 .508-.018h2.43c1.13-.035 2.259-.06 3.388-.087h.001c1.036-.024 2.072-.048 3.109-.078.605-.017 1.217-.042 1.83-.067.637-.025 1.273-.051 1.901-.068l3.798-.102c.758-.017 1.516-.025 2.269-.033.704-.008 1.404-.015 2.095-.03.924 0 1.825-.027 2.742-.054h.012l.512-.016c.823-.022 1.662-.074 2.496-.125.413-.026.825-.052 1.233-.073.645-.033 1.29-.097 1.934-.16l.066-.007c.262-.022.527-.047.793-.072h.002c.547-.052 1.1-.104 1.636-.127.61-.035 1.23-.06 1.848-.086.598-.025 1.195-.05 1.785-.083.378-.024.757-.052 1.136-.079 1.122-.08 2.248-.16 3.393-.186.84-.04 1.69-.044 2.54-.048a89.474 89.474 0 0 0 1.691-.018c.593-.017 1.186-.04 1.782-.065h.002c.643-.026 1.291-.052 1.948-.07l2.101-.1s1.398-.034 2.098-.102c.48-.026.962-.063 1.443-.1.718-.056 1.436-.112 2.154-.132.383-.017.766-.017 1.149-.017s.766 0 1.149-.017c.415-.01.835-.026 1.255-.041.827-.03 1.658-.06 2.475-.06.278 0 .569.025.886.051.213.018.438.037.679.05-.196.173-.339.29-.48.408l-.004.003-.15.123c.123.03.245.09.368.151l.033.017a.9.9 0 0 1-.532.164c-.018.046-.037.084-.055.121-.05.103-.098.205-.147.449h.6c-.167 0-.316.153-.473.313-.063.064-.127.13-.193.187-.266-.069-.5 0-.633.367.226.127.202.225.17.355l-.003.012c-.4.132-.7.266-.532.699a5.816 5.816 0 0 1-.12.056h-.001c-.108.05-.227.105-.347.177a1.1 1.1 0 0 1-.193.22c-.133.124-.25.236-.207.48.08.018.158.05.23.08.05.02.096.039.137.051-.082.033-.163.074-.245.115-.085.042-.17.085-.255.118-.53.325-.381.494-.248.644l.05.057-.004.003c-.1.066-.198.13-.297.164.066.3.165.368.199.368-.133.098-.3.232-.5.4a1.69 1.69 0 0 1-.271.496 4.246 4.246 0 0 0-.096.136 2.064 2.064 0 0 0-.146.281 1.686 1.686 0 0 1-.221.387c-.226.248-.43.51-.635.771-.429.548-.854 1.093-1.463 1.498-.334.234-.632.534-.932.836-.243.228-.474.468-.705.707-.342.354-.684.708-1.061 1.027-.832.7-1.697 1.333-2.598 1.967a187.668 187.668 0 0 1-3.296 2.268 13.2 13.2 0 0 1-1.154.66c-.25.132-.5.264-.745.406-.33.192-.653.375-.975.558-.295.168-.589.335-.89.51-.149.098-.292.21-.436.322-.245.192-.492.385-.765.513-.726.31-1.483.589-2.24.868-.387.143-.774.286-1.157.433-.404.172-.766.334-1.105.485-.586.262-1.099.492-1.627.682a18.79 18.79 0 0 1-2.364.633 1.716 1.716 0 0 1-.482.028c-.127-.004-.256-.009-.385.006-.185.033-.37.07-.554.106-.382.076-.764.15-1.146.195-.732.1-1.464.184-2.196.267-.734.084-1.467.167-2.2.267-.435.051-.86.118-1.286.184a32.84 32.84 0 0 1-1.28.184c-.36.02-.733.003-1.103-.012-.246-.01-.49-.021-.729-.021-.161 0-.327.014-.494.028-.282.024-.567.048-.839.006-.471-.068-.943-.166-1.416-.263a39.275 39.275 0 0 0-.683-.137 4.73 4.73 0 0 1-.077-.017c-.155-.033-.342-.074-.454-.016-.148.074-.286.046-.426.017a.76.76 0 0 0-.343-.017c-.09.019-.183-.014-.275-.048-.075-.026-.149-.053-.223-.053a.654.654 0 0 0-.213 0 .814.814 0 0 1-.256 0l-.209-.06c-.288-.084-.567-.166-.892-.14-.268.023-.539-.061-.82-.149a5.503 5.503 0 0 0-.408-.116l-.958-.217h-.002l-.807-.184a3.016 3.016 0 0 1-.664-.3c-.868 0-1.435-.033-1.968-.234a9.474 9.474 0 0 1-.277-.105c-.365-.142-.722-.28-1.121-.227a.428.428 0 0 1-.214-.011c-.048-.01-.098-.022-.153-.022a1.535 1.535 0 0 1-.103-.168c-.065-.117-.13-.233-.195-.233-.402.02-.707-.178-1.011-.375-.2-.13-.397-.259-.622-.325-.149-.05-.281-.158-.413-.266-.134-.11-.268-.218-.418-.268a5.385 5.385 0 0 1-.8-.44c-.424-.265-.85-.531-1.365-.593a2.492 2.492 0 0 1-.549-.163c-.092-.035-.186-.071-.284-.103l.077.103a1.9 1.9 0 0 0 .189.229c-.739-.359-1.438-.754-2.13-1.144l-.001-.001c-.212-.12-.423-.24-.634-.357a.587.587 0 0 1-.23-.15 1.039 1.039 0 0 0-.101-.083l-.899-.6c-.416.085-.625-.042-.761-.124l-.056-.033a.466.466 0 0 0-.018-.01c-.395-.278-.815-.51-1.236-.744-.537-.299-1.076-.597-1.562-.99a5.61 5.61 0 0 0-.388-.283c-.253-.174-.5-.343-.675-.585-.469-.567-1.034-.967-1.667-1.3-.488-.26-.945-.554-1.4-.848l-.03-.02c-.235-.166-.47-.366-.47-.733 0-.235-.098-.469-.398-.335l-.052-.08c-.116-.178-.235-.361-.38-.42-.317-.13-.55-.347-.781-.564a9.6 9.6 0 0 0-.185-.17 4.054 4.054 0 0 1-.27-.27c-.19-.204-.378-.405-.63-.496-.575-.23-.952-.683-1.301-1.104l-.164-.196c-.694-.818-1.332-1.692-1.97-2.564-.22-.303-.44-.605-.663-.904a.714.714 0 0 0-.168-.158 1.374 1.374 0 0 1-.132-.11c.105.29.232.539.362.795.035.067.07.135.104.205-.332-.133-.565-.367-.765-.6-.034.034 2.298 3.87 2.298 3.87.104.154.199.31.294.465.088.145.176.29.273.436a1.03 1.03 0 0 1-1-.535c-.299-.531-.633-.865-1.299-.797a5.82 5.82 0 0 1-.164-.734c-.136 0-.235 0-.469-.034a67.72 67.72 0 0 1 1.3 2.1 5.678 5.678 0 0 1-.151-.092h-.001c-.081-.05-.138-.086-.183-.107.189.2.36.416.532.63.373.468.74.93 1.265 1.205.086.395.358.683.628.97.255.272.508.541.605.897l-.22-.048-.248-.053c-.14-.176-.291-.352-.446-.533a28.288 28.288 0 0 1-.419-.5c.066.233.165.433.299.6l.213.269c.322.408.638.809 1.02 1.165.045.046.095.085.144.122.132.101.256.196.256.415.266.133.367.165.466.165.017.05.023.107.03.162.02.167.037.323.337.273.266.5.531.5.899.334.434.434.668.469.967.203 0 .086.009.173.017.256.008.075.016.146.016.21.11-.056.107-.134.103-.254l-.002-.08c.066.053.122.096.17.132.07.054.122.094.161.133l.035.05c.32.449.615.864 1.064 1.219.314.264.611.537.904.806.299.273.592.543.894.795 1.167.968 2.468 1.77 3.765 2.502.637.359 1.263.728 1.888 1.097.948.558 1.895 1.116 2.877 1.638 1.965 1.035 4.063 1.736 6.228 2.236.8.167 1.566.333 2.367.532.29.084.582.186.873.287.408.142.816.285 1.224.381.952.21 1.93.391 2.886.569l.345.064c.231.034.468.069.734.101.144.033.304.018.438.006.144-.013.258-.024.292.029.13.205.238.172.373.13a.97.97 0 0 1 .127-.032c.233-.067.5-.067.766-.067.362.013.719.05 1.074.089.561.06 1.12.119 1.69.078.05 0 .104-.01.16-.02.18-.032.382-.068.51.185.223-.1.372-.125.49-.144l.108-.02c.033.282.003.297-.054.326l-.01.005-.044.02c-.065.03-.15.067-.257.147 1.199.233 2.332.266 3.33 0 1.734.133 3.232-.067 4.665-.567l.053.07c.11.15.207.285.38-.003.061-.094.21-.13.34-.162l.027-.006c.057-.013.116-.028.177-.044.258-.066.54-.137.755-.058.176.06.284-.007.39-.072.074-.047.147-.092.243-.092.401 0 .767-.034 1.134-.101.12-.02.24-.064.366-.11a3.97 3.97 0 0 1 .267-.09 1.613 1.613 0 0 0-.734-.169c.4-.2.767-.367 1.134-.531l-.012.018-.014.02c-.06.092-.125.193-.24.193h.465c-.064 0-.14.117-.227.254a2.65 2.65 0 0 1-.173.246c.578-.145 1.134-.282 1.674-.415h.002l1.687-.42c-.228-.434-.019-.508.237-.598.155-.055.328-.116.429-.268-.333.101-.666.2-1 .266.954-.477 1.932-.907 2.892-1.33l.313-.137.225-.099c-.146.178-.322.277-.569.415l-.095.053c.081.013.152.02.214.028.089.01.16.017.218.036.374.118.42-.094.472-.335.022-.102.045-.209.094-.298.609 0 .878-.091 1.164-.188l.035-.012.07-.021c.31-.094.619-.188.93-.312.33-.145.648-.315.97-.487.195-.104.393-.21.595-.31a.693.693 0 0 1 .258-.009 2.988 2.988 0 0 0 .142.008c.16-.103.276-.199.363-.272.113-.093.179-.149.235-.13.469.067.798-.101.932-.532l.094-.068c.133.295.4.328.834.029-.267 0-.533-.033-.766-.066-.017 0-.026.009-.034.017-.008.008-.015.015-.03.016l.097-.07c.139-.103.255-.19.37-.26.353-.193.698-.386 1.042-.578h.001c.371-.208.742-.415 1.122-.622.266 0 .4 0 .466-.035.436-.202.836-.432 1.234-.667-.101-.033-.333-.164-.333-.164.33-.068.43-.101.63-.168h.003c.508-.597 1.139-1.07 1.745-1.525.346-.26.684-.513.986-.78.367-.032.367-.132.367-.198l.087-.113c.104-.138.215-.283.343-.388.285-.259.579-.502.87-.744.463-.383.92-.762 1.329-1.19a46.991 46.991 0 0 0 2.764-3.006l.065-.075c.776-.909 1.553-1.82 2.201-2.826.849-1.304 1.586-2.636 2.339-3.997l.226-.408c.299-.53.58-1.061.863-1.592.284-.536.569-1.072.871-1.608.063-.101.199-.234.299-.234a58.37 58.37 0 0 1 1.294-.128c.463-.043.922-.085 1.372-.138.171-.028.368-.13.546-.221l.087-.045a2.55 2.55 0 0 1-.138-.274c-.04-.09-.08-.178-.128-.26a2.418 2.418 0 0 0-.234-.285 2.418 2.418 0 0 1-.235-.285 3.091 3.091 0 0 1-.32-.544l-.011-.021c-.045-.073-.09-.14-.133-.206-.056-.085-.112-.168-.167-.263a12.133 12.133 0 0 1-.57-1.131l-.016-.047c-.034-.1-.08-.234-.05-.32.314-.68.527-1.387.74-2.093.195-.645.389-1.289.659-1.91.45-1.062.65-2.231.846-3.387.05-.296.1-.59.154-.883.178-1.045.298-2.09.419-3.136.037-.321.074-.643.113-.965.025-.243.053-.485.08-.725v-.001c.081-.714.162-1.419.185-2.142.18-1.358.147-2.64.114-3.91v-.001l-.012-.494c-.03-1.15-.09-2.328-.147-3.484l-.018-.352-.004-.004c-.016-.318-.03-.637-.044-.956zM5.674 71.882a.035.035 0 0 0-.015.004l.015-.004zm9.483 12.426c-.108-.142-.216-.284-.332-.417l.1-.101.146.16c.316.348.634.7.951 1.076-.056-.03-.115-.055-.173-.08-.148-.064-.288-.125-.359-.222a7.96 7.96 0 0 1-.332-.416zm.865.717a.97.97 0 0 1 .154-.034.958.958 0 0 0 .147-.033c.061.1.11.213.16.33.033.078.067.158.106.237-.466-.034-.699-.234-.566-.5h-.001zM50.668 98.8v-.1l.932-.1.932-.099v.098a17.9 17.9 0 0 1-1.864.2zm8.392-.865c-.413.09-.854.153-1.274.213l-.156.023c-.038.007-.077.022-.117.036-.134.048-.265.096-.316-.137a.468.468 0 0 1-.1.034.422.422 0 0 0-.1.034c.098.297.28.275.48.251.138-.016.284-.033.418.048-.359.05-.71.09-1.055.13-.362.043-.718.085-1.076.135v-.065l.246-.04c.132-.02.265-.04.387-.062v-.098a9.748 9.748 0 0 0-1-.067c-.057 0-.126.045-.194.09-.049.032-.096.063-.138.077l-.011.002c-.13.033-.26.065-.422.065-.279.016-.557.024-.832.032h-.001a26.07 26.07 0 0 0-.833.034c-.017 0-.043-.009-.068-.017a.27.27 0 0 0-.066-.016v-.102l3.744-.504c.97-.132 1.941-.263 2.918-.394.018.033.026.067.035.1a.449.449 0 0 0 .032.098c-.13 0-.232.03-.333.06a1.756 1.756 0 0 1-.167.042l-.001-.002zm1.585-.462h.002c.372-.043.74-.085 1.114-.135-1.531.433-2.031.499-2.198.266h-.002c.373-.05.731-.09 1.084-.13zM30.547 30.255c.418-.577.842-1.154 1.267-1.733a214.32 214.32 0 0 0 1.964-2.704c.164-.215.312-.438.46-.66.15-.229.303-.457.471-.677.068-.09.15-.15.247-.219.048-.034.099-.07.153-.115l-.033-.063c.041-.052.082-.1.12-.147a1.56 1.56 0 0 0 .213-.289c.122-.19.208-.399.295-.612.035-.084.07-.17.108-.255.033-.063.133-.13.133-.13.336.167.43-.043.519-.237.034-.076.067-.15.114-.197.3-.335.6-.7.866-1.035l.135-.176c.153-.199.302-.391.432-.624.022-.067-.015-.162-.053-.259-.018-.048-.037-.097-.049-.142h-.098c.053-.035.106-.078.158-.122.047-.04.094-.078.142-.11.014 0 .022 0 .029-.003a.124.124 0 0 0 .036-.03c.2-.302.4-.602.6-.869a14.36 14.36 0 0 1 1.298-1.532l-.004.009c-.064.162-.13.327-.196.457.017 0 .026.009.034.017.008.009.017.017.033.017.198-.265.405-.521.611-.778.21-.26.42-.521.622-.791l-.01-.01c-.03-.028-.06-.056-.091-.056-.08.08-.151.16-.223.24-.078.087-.156.174-.243.261-.033-.034-.066-.067-.101-.067a23.1 23.1 0 0 0 1-1.367c.067.101.134.233.265.5.077-.19.154-.347.223-.49a7.44 7.44 0 0 0 .145-.31c-.05.051-.11.102-.169.153-.057.05-.114.098-.163.148l-.101-.101.6-.899c.316-.45.632-.91.949-1.368.316-.459.633-.918.95-1.369.102-.146.218-.28.332-.412.145-.168.288-.335.402-.522.386-.774.91-1.45 1.434-2.124.333-.429.666-.858.963-1.311.126-.175.289-.332.447-.484l.153-.149c.165-.203.3-.134.433.033.45.567.899 1.142 1.348 1.718.45.575.899 1.15 1.348 1.717l.476.591c.507.628 1.009 1.249 1.491 1.91.37.517.733 1.034 1.096 1.55.387.551.774 1.102 1.17 1.653a151.928 151.928 0 0 1 2.564 3.734c.625.923 1.234 1.846 1.843 2.769.624.946 1.247 1.891 1.888 2.836.261.383.522.763.783 1.143.67.975 1.334 1.943 1.981 2.927h-1.7c-.526-.01-1.056-.033-1.587-.055-1.05-.044-2.104-.087-3.143-.044-1.432.068-2.878.196-4.32.323-.705.062-1.408.124-2.108.179-2.699.234-5.43.265-8.126.265-.645 0-1.288.06-1.93.12-.324.03-.646.06-.97.083l-.275.015c-1.07.061-2.116.12-3.19.15-1.355.067-2.672.1-4.026.134h-.037a26.25 26.25 0 0 1-1.566.008c-.274-.003-.552-.007-.833-.007l.001-.006zm38.207 15.341v.302a.115.115 0 0 0-.043.012.212.212 0 0 1-.09.022 87.385 87.385 0 0 1-.043-.151 17.922 17.922 0 0 0-.39-1.286c-.333-.968-.7-1.937-1.3-2.802-.383-.534-.742-1.079-1.104-1.628v-.001c-.272-.411-.545-.824-.83-1.238a3.396 3.396 0 0 0-.45-.488c-.051-.05-.102-.097-.15-.145l-.142-.157c-.654-.719-1.32-1.451-2.157-1.979a27.203 27.203 0 0 0-4.165-2.137 9.326 9.326 0 0 1-1.164-.6h.797l5.696-.1c.393-.01.782-.018 1.17-.025a67.62 67.62 0 0 0 2.495-.075c.299 0 .466.102.633.367.299.5.599 1 .932 1.502l.02.037c.035.063.08.145.08.229 0 .734 0 1.5.034 2.235.015.377.04.747.065 1.116.025.382.051.763.066 1.152 0 .303-.01.61-.02.922-.017.477-.033.961-.013 1.445.035 1.136.068 2.304.068 3.469l.005.002zm-33.478-11.29c.744-.04 1.484-.08 2.232-.113.61-.035 1.23-.06 1.849-.086.596-.025 1.192-.05 1.779-.082l.031-.001c.489-.032.946-.06 1.435.001l-.04.02c-.518.262-1.038.524-1.492.849-.334.223-.657.487-.982.752-.258.21-.517.423-.784.615-.601.433-1.134.967-1.633 1.534-.395.478-.816.918-1.24 1.36-.254.265-.51.532-.76.807-.153.175-.313.346-.473.517-.329.352-.657.703-.925 1.084-.523.679-.99 1.411-1.478 2.178l-.121.19.047-.888c.154-2.868.307-5.715.186-8.619l.004.003a195.07 195.07 0 0 0 2.366-.12zM54.215 66.63h-.003c-.924.234-1.867.472-2.813.586-.778.112-1.581.108-2.388.103l-.477-.001c-.868 0-1.7-.033-2.567-.102-.966-.098-1.931-.198-2.864-.633-.291-.133-.586-.261-.882-.39a32.68 32.68 0 0 1-1.549-.71c-.802-.4-1.6-.867-2.202-1.6-.314-.391-.718-.727-1.12-1.061-.15-.124-.3-.249-.445-.375-.063-.128-.135-.263-.207-.4a19.436 19.436 0 0 1-.226-.436 28.004 28.004 0 0 1-.766-1.333.604.604 0 0 1-.067-.151.599.599 0 0 0-.065-.149 7.461 7.461 0 0 1-.469-.6 14.665 14.665 0 0 1-.243-.382 7.58 7.58 0 0 0-.588-.852c0 .047.007.094.015.144.009.057.019.119.019.19-.034 0-.067.033-.067.033l-.702-1.701c-.033 0-.033 0-.065.033l.598 2.203a.112.112 0 0 0-.048.015c-.018.008-.035.016-.053.016l-.003-.005a2.008 2.008 0 0 1-.263-.425c-.066-.269-.266-.269-.43-.169-.101.068-.169.3-.134.4.234.567.5 1.135.767 1.702.066.2.133.367.233.567a.394.394 0 0 0 .051.07c.04.046.083.097.083.163.04.08.077.159.114.238.086.184.17.364.286.529.15.2.308.4.466.6.159.2.317.4.467.6.204.274.393.565.577.849l.253.385c.02.04.065.057.104.07.025.01.048.018.06.031.17.5.735.866 1.135.666.057.43.342.702.64.987.235.225.48.458.626.781-.4-.167-.699-.3-.966-.434a.172.172 0 0 0-.04.07l-.028.063c.4.2.8.4 1.164.633l.041.025c.322.194.64.386.927.608.4.367.868.57 1.43.701a.357.357 0 0 0-.062-.135c.931.434 1.898.901 2.63 1.266-3.465.068-7.162.135-10.994.202 0-.316-.008-.625-.016-.933a34.927 34.927 0 0 1-.017-.935c0-.107.01-.208.021-.309.016-.15.031-.298.011-.458-.034-.515-.057-1.031-.08-1.546-.044-1.016-.088-2.028-.22-3.024-.199-1.6-.199-3.168-.165-4.772.024-.658-.008-1.336-.04-2.005-.01-.21-.02-.42-.028-.628 0-1.167 0-2.304.035-3.468 0-.142.049-.26.104-.394l.03-.075h.102c.012.027.015.06.018.09.003.048.007.092.045.113.101.101.269.266.336.233.046-.031.097-.062.15-.094.175-.105.364-.219.415-.375a3.27 3.27 0 0 0 .233-1.233c0-.293.13-.492.26-.69l.006-.01c.045-.065.074-.13.107-.203.019-.04.038-.083.062-.13a2.674 2.674 0 0 0-.179-.121 2.937 2.937 0 0 1-.254-.178c.031-.087.054-.178.076-.269.072-.291.143-.58.525-.731.043-.023.058-.102.073-.182a.885.885 0 0 1 .028-.12l.03-.257c.022-.195.044-.395.069-.578a.939.939 0 0 0 .142.175l.022.024a.531.531 0 0 1 .069-.102c0-.043-.004-.102-.007-.16v-.001c-.008-.118-.015-.237.007-.237.243-.041.277-.217.31-.393.022-.115.044-.229.123-.307.018-.021.004-.063-.012-.108a.322.322 0 0 1-.022-.095c0-.066 0-.165.032-.165.276-.06.365-.26.455-.463.06-.138.122-.277.244-.372a.55.55 0 0 0 .15-.172c.03-.045.066-.098.116-.16.17.297.04.5-.083.695-.07.11-.138.217-.15.337.565-.333.732-1.133.399-1.367.133-.101.266-.233.367-.367.145-.159.295-.312.444-.464.228-.232.453-.462.655-.703.118-.15.21-.318.302-.486.091-.166.182-.331.298-.48.132-.164.391-.296.59-.396l.01-.005c.6-.332 1.164-.7 1.531-1.266.062-.062.151-.122.242-.184l.024-.016a.564.564 0 0 1 .149-.058c.084-.025.165-.048.185-.11.035-.065-.065-.232-.133-.332.054-.028.109-.066.173-.111.091-.065.202-.144.36-.223a2.805 2.805 0 0 0-.123.284c-.025.065-.048.125-.078.184l.165.165c.195-.152.46-.317.705-.47.131-.081.257-.16.362-.23 0-.03-.167-.164-.167-.164l-.095.05-.078.04c-.18.095-.403.21-.625.31a.663.663 0 0 0 .06-.125c.013-.033.022-.058.041-.075.465-.3.93-.6 1.43-.835l.138-.063c1.12-.51 2.24-1.023 3.36-1.503.143-.072.321-.058.496-.044.07.006.138.011.204.011.1 0 .165 0 .266-.033a28.97 28.97 0 0 1 1.599-.468c.231-.066.497-.099.734-.099.32.01.64.017.96.024.678.015 1.357.03 2.035.075.433.033.833.133 1.233.266.499.168 1.032.4 1.499.633.565.303 1.098.635 1.633 1.002.375.246.74.503 1.104.758.57.4 1.136.797 1.726 1.143.933.567 1.666 1.335 2.266 2.203.137.192.277.381.416.57.61.822 1.212 1.633 1.483 2.664l.498 2.203c.028.108.065.216.102.325.101.296.205.6.132.94-.149.74-.27 1.506-.388 2.25l-.046.287-.002.013c-.065.33-.13.662-.096.987.061 1.009-.314 1.886-.7 2.792l-.035.079a5.776 5.776 0 0 1-.267.506c-.078.138-.159.28-.233.428.033.033.233.134.266.134l.3-.6a.26.26 0 0 1 .02 0l.01.003c.01.004.018.012.037.032-.082.23-.157.47-.231.71a17.52 17.52 0 0 1-.237.724l-.089.23c-.369.962-.746 1.945-1.209 2.871-.158.338-.388.64-.62.943-.155.205-.311.41-.445.627-.148.207-.283.421-.416.633-.167.265-.331.526-.516.767l-.006.007c-.298.365-.595.729-.994.993-.899.667-1.832 1.334-2.797 1.868-.6.367-1.3.567-1.965.734l.009-.004-.45.114zm-17.31-4.183c.101.4.333.734.7.967-.167.2-.4.101-.734-.434-.07.048-.142.08-.202.105l-.064.029.04-.093c.088-.203.174-.402.26-.574zm.004 2.297l-.033.034a.855.855 0 0 0-.023-.01l-.025-.01c-.062-.028-.135-.06-.187-.112l-.8-1.203a.38.38 0 0 1-.066-.332c.367.567.734 1.102 1.133 1.633h.001zm20.722 4.57c1.497-.633 2.73-1.532 3.86-2.567l.01-.01c.165-.164.328-.326.524-.459 1.4-.865 2.43-2.067 3.365-3.4.727-1.048 1.284-2.187 1.84-3.325.259-.53.517-1.06.793-1.578a3.45 3.45 0 0 1 .199-.367c-.067 3.802.367 7.537.866 11.307-3.494.123-7.045.247-10.627.371l-.068.003-.764.026.002-.001zm33.775-1c-.015.032-.04.065-.064.098a.616.616 0 0 0-.068.104.545.545 0 0 1-.039-.155 1.852 1.852 0 0 0-.028-.148c-.152.406-.438.35-.698.3a1.293 1.293 0 0 0-.235-.032c-1.798.034-3.63.034-5.43.034-1.732 0-3.497 0-5.229.03-.327 0-.665.045-1 .089-.248.032-.494.064-.734.079-1.364.065-2.73.1-4.096.132-.063 0-.125-.064-.204-.144a1.774 1.774 0 0 0-.163-.154 2.282 2.282 0 0 1-.2.3.832.832 0 0 0-.08-.113c-.027-.035-.058-.073-.088-.119-.033.101-.068.2-.102.266h-.096a9.115 9.115 0 0 0-.084-.468c-.058-.297-.116-.59-.116-.9 0-.591.036-1.183.071-1.776.025-.408.05-.817.062-1.226a8.9 8.9 0 0 0 .007-.901c-.003-.145-.007-.289-.007-.433.079.06.146.107.214.156l.153.11c.066-.13.133-.23.2-.33 0 0-.067-.035-.134-.1.063-.035.132-.102.132-.135a.978.978 0 0 1 .05-.12.396.396 0 0 0 .05-.145c0-.16-.031-.305-.062-.443-.014-.064-.028-.128-.038-.19.032 0 .065 0 .1-.036l.2 1h.1c-.055-.095-.013-.186.028-.278.06-.13.12-.264-.094-.42-.02-.02-.005-.098.01-.18a.843.843 0 0 0 .023-.155 4.173 4.173 0 0 1-.194-.47 18.946 18.946 0 0 0-.072-.196c.033-.032.133-.067.233-.1l-.13-.069a1.296 1.296 0 0 0-.203-.096c.333-.302.333-.469.033-.802a.453.453 0 0 1 .073-.025c.035-.01.06-.018.06-.038 0-.301 0-.601-.065-.899a1.523 1.523 0 0 1-.02-.27c-.005-.26-.009-.517-.38-.666a.97.97 0 0 0 .133.265s-.101.035-.2.102c-.282-.261-.266-.58-.25-.935a2.74 2.74 0 0 0-.016-.6c.233.066.4.133.566.202a2.73 2.73 0 0 0-.157-.384 3.967 3.967 0 0 1-.176-.419h-.135v-2.202c0 .02.075.028.165.038.068.007.144.015.202.03 0-.017.008-.034.016-.05a.125.125 0 0 0 .015-.051 3.815 3.815 0 0 0-.176-.209 5.536 5.536 0 0 1-.19-.224l.066-.067c-.219-.273-.167-.638-.142-.814a.745.745 0 0 0 .01-.085v-2.335c.153.153.13.327.11.49-.024.192-.046.368.224.477v-.333h-.035c-.016-.25-.024-.5-.032-.75v-.001c-.009-.25-.017-.5-.033-.75h-.066a.541.541 0 0 0-.034.083c-.009.026-.017.051-.035.085h-.065l.2-7.972c.09.116.182.231.273.345.247.307.488.606.658.92.59 1.078 1.316 2.037 2.044 2.999.22.29.44.58.655.872.597.823 1.157 1.7 1.707 2.564.187.293.373.585.559.872.44.67.873 1.34 1.306 2.011.45.697.9 1.394 1.358 2.09.666 1.036 1.367 2.07 2.064 3.071.606.862 1.246 1.695 1.884 2.528l.083.107c.287.39.583.781.88 1.171v.001c.286.377.572.753.85 1.13l.03.041c.657.92 1.313 1.84 1.97 2.727.309.434.648.869.988 1.304l.075.096c.158.207.375.376.557.519l.145.114c-.032 0-.066 0-.132-.033.033.043.062.083.088.12.055.075.099.135.145.18.367.2.4.4.2.701l.002-.007zm1.7-8.338v-.233c0 .02.003.045.006.07.007.055.016.116-.007.163zm1.132-14.708a.035.035 0 0 1-.015-.006l.001-.003.014.01zm-.015-.006a2.192 2.192 0 0 1-.241-.22l-.01-.01c-.014.042-.016.083-.019.126-.004.063-.008.13-.048.209-.016-.048-.08-.065-.141-.081-.064-.017-.124-.033-.124-.084-.018.233.032.466.082.7.05.233.1.467.082.7a.978.978 0 0 1 .25-.076c.14-.032.293-.068.35-.124a.261.261 0 0 0 .134.066c-.667.501-.5 1-.2 1.57l.03.057c.08.143.21.376.036.609-.045.046-.012.153.023.27.017.055.034.11.044.164h.098v.063l-.3.101a.8.8 0 0 0-.166-.14c-.135-.099-.299-.22-.299-.328v1.704c.229.07.3.31.366.53.03.101.058.198.1.271a.994.994 0 0 0 .135-.266l.035.03-.004.022c-.033.193-.066.386-.13.58l-.033.143v.001c-.054.243-.106.47-.132.722 0 .016.016.042.032.067s.031.05.031.066c-.23.525-.235 1.089-.241 1.65a6.969 6.969 0 0 1-.056.983c-.056.345-.05.701-.046 1.062.005.301.009.605-.021.907-.069.567-.203 1.167-.335 1.734-.034.102-.101.133-.265.2.065-.4.032-.667-.035-1.034-.018 0-.137-.06-.255-.118a2.096 2.096 0 0 0-.247-.115c0 .29.101.641.202.993.063.218.126.437.165.64a3.188 3.188 0 0 1-.312-.156 1.752 1.752 0 0 0-.22-.11c-.045.266-.06.591-.075.907-.008.16-.015.315-.026.46-.017.163-.096.317-.176.474-.086.167-.174.338-.191.526 0 .085.04.157.086.237.062.112.133.237.114.432h.266c0-.329.073-.641.147-.958.077-.325.154-.654.154-1.01h.099c.013.027.037.053.058.077.034.038.063.07.043.09a7.27 7.27 0 0 1-.065.306c-.063.277-.128.562-.102.829 0 .082.027.163.055.247.041.122.084.248.046.386a3.243 3.243 0 0 0-.135.701 2.797 2.797 0 0 0-.037-.152.67.67 0 0 1-.03-.18c-.017 0-.098-.01-.181-.018-.084-.008-.17-.017-.186-.017-.017.103.045.207.106.305.056.093.11.181.094.262a.173.173 0 0 1-.069.039c-.017.007-.038.015-.064.028l-1.1-1.602a338.866 338.866 0 0 1-2.6-3.836 8.003 8.003 0 0 1-.6-1 46.784 46.784 0 0 0-3.43-5.105c-.608-.776-1.137-1.592-1.67-2.415-.315-.484-.63-.97-.964-1.452-.429-.638-.859-1.267-1.289-1.896v-.001c-.403-.589-.805-1.177-1.207-1.774a10.673 10.673 0 0 0-.355-.438c-.204-.244-.41-.49-.578-.762a78.018 78.018 0 0 1-1.255-2.079 80.693 80.693 0 0 0-1.241-2.056 74.658 74.658 0 0 0-1.714-2.503l-.585-.834c-.231-.32-.463-.666-.696-1.014l-.104-.154a.464.464 0 0 1-.066-.23v-.001a50.061 50.061 0 0 1-.167-2.168c0-.33.017-.659.033-.992.017-.342.034-.688.034-1.043v-.6c0-.084.008-.159.016-.234.008-.075.016-.15.016-.235a.454.454 0 0 0 .048-.064.507.507 0 0 1 .05-.067c-.32 0-.644-.004-.97-.008a39.967 39.967 0 0 0-1.96.008c-.634.031-.967-.236-1.4-.703-.844-.957-1.54-2.003-2.237-3.049a53.876 53.876 0 0 0-1.06-1.554 205.913 205.913 0 0 0-3.165-4.338c-.412-.555-.825-1.102-1.237-1.65-.454-.603-.908-1.206-1.361-1.818-.33-.455-.657-.91-.983-1.366a147.014 147.014 0 0 0-1.916-2.636c-1.2-1.6-2.433-3.203-3.665-4.803-.349-.45-.722-.887-1.104-1.336a70.26 70.26 0 0 1-.731-.866l.102.016c.395.062.765.12 1.132.152l1.6.101.854.066c.914.069 1.828.138 2.741.263a48.28 48.28 0 0 1 1.861.302c.387.068.777.136 1.172.2 2.2.367 4.365.968 6.463 1.668.992.322 1.96.73 2.927 1.138l.706.296c2.696 1.101 5.262 2.436 7.794 3.836.598.325 1.011.8 1.433 1.286.14.161.281.324.43.482l.046.047c.852.886 1.703 1.77 2.52 2.687a88.95 88.95 0 0 1 2.028 2.429c.255.313.51.627.77.94.426.513.861 1.026 1.296 1.54.414.487.828.975 1.235 1.463.181.204.333.44.484.674.07.11.141.22.215.326.166.25.339.498.512.746.382.546.766 1.095 1.087 1.69.26.5.44 1.063.619 1.621a261.31 261.31 0 0 0 .695 2.136v.001c.15.457.3.915.45 1.38.232.767.43 1.57.598 2.367.061.245.088.497.114.75.031.297.062.595.151.883.102.351.102.719.102 1.085 0 .367 0 .734.1 1.086.015.029.028.064.043.1.018.047.037.096.057.134.133.131.233.266.033.466-.032.032-.032.164 0 .265.05-.048.08-.097.12-.159l.048-.074c0 .04.011.068.02.091l.008.023a.069.069 0 0 1 .004.02c0 .043-.004.087-.008.131a.773.773 0 0 0 .008.267c0 .05.036.116.068.176l.03.057c.042-.042.083-.07.14-.11.034-.025.075-.054.126-.093.3 1.136.334 2.27.334 3.437 0 .254.01.509.021.763.036.845.07 1.686-.286 2.507.05-.185.015-.362-.019-.535-.033-.169-.065-.333-.017-.498zM72.952 58.24c.032 0 .066.035.066.035l-.034-.038c0-.015 0-.022-.003-.024-.002 0-.006.002-.013.008a.657.657 0 0 0-.017.016l.001.003zm5.262 32.957c-.367.266-.734.5-1.2.6a.168.168 0 0 1-.036-.052.18.18 0 0 0-.032-.049c.178-.113.363-.225.548-.338.198-.12.396-.241.585-.362.016.03.04.06.063.091a.71.71 0 0 1 .071.108l.001.002zm-62.458-45.2l.068-.086c.345-.436.691-.874 1.064-1.312.016.017.094.043.17.069a.694.694 0 0 1 .161.064l-.128.163c-.35.446-.78.994-1.104 1.438a.911.911 0 0 1-.104-.155c-.047-.08-.094-.16-.13-.18h.003zM6.294 62.344c-.13-.278-.26-.565-.391-.851-.136-.297-.271-.595-.406-.883a1.15 1.15 0 0 1 .298-.134c.24.347.394.738.546 1.126.08.206.161.41.254.608 0 0-.265.133-.3.133v.001zm8.496-16.012v.002a.473.473 0 0 1-.127-.094l-.007-.007c-.1.149-.273.356-.446.563-.176.21-.352.42-.452.571.016.017.113-.016.212-.049.101-.033.204-.067.22-.05.1-.15.2-.309.3-.468.1-.158.2-.316.3-.466v-.002zm.064 1.401c.035-.101.1-.2.168-.3.066 0 .165-.034.165-.034.065-.112.099-.209.13-.301.036-.1.069-.195.138-.3-.016-.015-.033-.024-.05-.032s-.034-.017-.051-.034a7.623 7.623 0 0 0-.277.203c-.107.08-.215.162-.322.234.067.065.067.1.067.167-.266-.034-.367.1-.5.466-.02.06-.085.095-.17.141-.06.033-.128.07-.197.124-.015.031-.03.083-.048.145-.022.075-.048.166-.085.257l.034.035c-.067.067-.167.101-.167.101-.1.1-.208.191-.316.283a5.331 5.331 0 0 0-.317.283l-.002.007a.966.966 0 0 0-.064.293c.076-.075.168-.17.268-.275.213-.22.462-.478.665-.66l.035.035c.065-.098.122-.196.18-.294.059-.102.118-.204.187-.306a.172.172 0 0 1 .031.049.185.185 0 0 0 .034.052 19.07 19.07 0 0 0-.16.443 21.7 21.7 0 0 1-.14.389l-.063.033c-.055.03-.106.059-.106.034-.065.05-.123.107-.18.164-.06.059-.119.118-.187.169l-.6.4c-.272.246-.545.469-.836.707l-.196.16c-.097.154-.195.301-.295.452-.139.211-.283.43-.44.682.402-.101.502.067.47.402.378.053.472-.18.565-.412.021-.053.042-.106.067-.156l.026-.062c.026-.068.058-.148.107-.173.189-.167.39-.322.597-.48.122-.093.245-.187.369-.286.067-.067.067-.202.067-.301 0-.019-.054-.027-.12-.037a.905.905 0 0 1-.148-.03c.208-.232.48-.575.728-.885.109-.138.213-.269.304-.381.168-.101.333-.235.333-.335-.028-.313.137-.431.353-.542-.153.725-.601 1.343-1.048 1.47.133.068.266.135.367.102.072-.025.127-.12.177-.21.019-.032.037-.064.055-.091l.899-1.302.301-.5-.133-.134-.001.004c-.065.114-.13.22-.196.327-.067.11-.135.22-.203.34l-.115-.058.013-.006c-.134-.102-.169-.2-.169-.232l.002-.004zM4.674 62.025c-.083-.008-.162-.016-.242-.016-.033.033.1.234.134.268h.699c0-.084-.008-.16-.017-.235-.008-.075-.016-.15-.016-.233h-.101c0 .066-.042.09-.084.116-.042.025-.085.05-.085.117a2.87 2.87 0 0 1-.288-.018zm-.51-1.551a.134.134 0 0 0 .001 0l-.001.002v-.002zm-.096-.085c.034.028.067.056.096.085.001-.032.033-.066.067-.097-.031-.11-.055-.214-.079-.316-.026-.114-.052-.228-.088-.35l-.005.008c-.097.164-.193.327-.16.456 0 .071.084.142.17.214zm.93-2.047v-.002l.001.002zm0 0c-.066 0-.266.101-.299.134.066.164.14.337.214.51.076.177.152.355.22.524.032-.031.232-.133.265-.133a31.572 31.572 0 0 1-.218-.564c-.06-.16-.12-.318-.181-.471zm74.599 31.767c-.179.04-.323.072-.447.122a3.849 3.849 0 0 1-.1.181c-.035.06-.069.118-.103.186.034 0 .067.034.101.067.165-.165.352-.307.58-.481l.155-.118-.186.043zM38.5 19.557c-.096.06-.192.121-.295.191l-.003.002c-.024.023-.048.03-.048.032h.014c.02.095.028.18.038.278.007.074.015.155.029.254.088-.126.166-.242.24-.352.123-.183.235-.349.361-.515l-.066-.066c-.095.064-.183.12-.27.176zm9.694 16.966l-.23.102h-.001a.682.682 0 0 1-.064.134c-.043.08-.088.166-.07.166.078-.015.2-.082.328-.152.146-.08.3-.164.406-.182.1 0 .233.034.334.069 0-.134 0-.269.033-.469-.273.126-.509.23-.736.332zm24.947 28.681c-.081-.087-.167-.18-.19-.292l-.023.26c-.025.277-.045.51-.045.74 0 .068.067.2.101.2.062.033.184-.025.254-.058l.012-.006a.252.252 0 0 0 .066-.134 1.28 1.28 0 0 0-.148-.083c-.05-.026-.1-.051-.15-.087.419-.22.282-.368.123-.54z" clip-rule="evenodd"/>
</svg>
